<svg width="21" height="20" viewBox="0 0 21 20" fill="none" xmlns="http://www.w3.org/2000/svg">
<path d="M15.24 20C14.9748 20 14.7204 19.8946 14.5329 19.7071C14.3453 19.5196 14.24 19.2652 14.24 19V16.4C14.2711 16.1009 14.2391 15.7987 14.146 15.5127C14.053 15.2268 13.9011 14.9635 13.7 14.74C13.5755 14.605 13.4906 14.4383 13.4546 14.2582C13.4186 14.0781 13.4329 13.8915 13.4959 13.719C13.5589 13.5465 13.6682 13.3947 13.8118 13.2802C13.9554 13.1657 14.1278 13.093 14.31 13.07C16.75 12.78 19 12 19 7.76999C19.0008 6.98007 18.7676 6.20761 18.33 5.54999C17.9261 4.94462 17.7787 4.20386 17.92 3.48999C18.0101 3.02432 18.0101 2.54567 17.92 2.07999C17.1712 2.33317 16.4662 2.70087 15.83 3.16999C15.7097 3.25541 15.572 3.31315 15.4268 3.33909C15.2816 3.36502 15.1324 3.3585 14.99 3.31999C13.1853 2.81005 11.2747 2.81005 9.46999 3.31999C9.32758 3.3585 9.17841 3.36502 9.03319 3.33909C8.88796 3.31315 8.75027 3.25541 8.62999 3.16999C7.98993 2.69543 7.27742 2.32736 6.51999 2.07999C6.42489 2.54518 6.42489 3.0248 6.51999 3.48999C6.65107 4.21285 6.49695 4.95837 6.08999 5.56999C5.65425 6.23222 5.42139 7.00727 5.41999 7.79999C5.41999 11.69 7.29999 12.73 10.12 13.09C10.3045 13.1129 10.479 13.1868 10.6239 13.3034C10.7687 13.42 10.8782 13.5746 10.94 13.75C10.9981 13.9202 11.0093 14.1029 10.9724 14.2788C10.9354 14.4548 10.8517 14.6176 10.73 14.75C10.5355 14.9579 10.3862 15.2039 10.2915 15.4724C10.1969 15.7409 10.1589 16.0261 10.18 16.31V19C10.18 19.2652 10.0746 19.5196 9.8871 19.7071C9.69956 19.8946 9.44521 20 9.17999 20C8.91477 20 8.66042 19.8946 8.47288 19.7071C8.28535 19.5196 8.17999 19.2652 8.17999 19V18.43C7.19735 18.543 6.20202 18.4113 5.28257 18.0467C4.36312 17.682 3.54809 17.0958 2.90999 16.34C2.58199 15.9764 2.18847 15.6779 1.74999 15.46C1.62261 15.4272 1.50294 15.3696 1.39782 15.2905C1.29269 15.2114 1.20418 15.1124 1.13732 14.9991C1.07046 14.8858 1.02657 14.7605 1.00816 14.6302C0.98974 14.5 0.997159 14.3674 1.02999 14.24C1.06282 14.1126 1.12042 13.9929 1.1995 13.8878C1.27858 13.7827 1.37759 13.6942 1.49087 13.6273C1.60416 13.5605 1.72951 13.5166 1.85976 13.4982C1.99001 13.4797 2.12261 13.4872 2.24999 13.52C3.01924 13.8002 3.70659 14.2676 4.24999 14.88C5.24999 15.88 6.24999 16.76 8.14999 16.4C8.11658 15.8631 8.1949 15.3251 8.37999 14.82C6.31999 14.3 3.37999 12.82 3.37999 7.81999C3.37735 6.63562 3.7253 5.47697 4.37999 4.48999C4.50159 4.3078 4.54816 4.08569 4.50999 3.86999C4.30792 2.79057 4.42253 1.67573 4.83999 0.659994C4.89671 0.524559 4.98256 0.403276 5.09145 0.304763C5.20033 0.20625 5.32957 0.132924 5.46999 0.0899942C5.80999 -0.0100058 7.02999 -0.210006 9.33999 1.28999C11.21 0.839998 13.16 0.839998 15.03 1.28999C17.34 -0.210006 18.56 -0.0200058 18.89 0.0899942C19.0304 0.132924 19.1596 0.20625 19.2685 0.304763C19.3774 0.403276 19.4633 0.524559 19.52 0.659994C19.9383 1.67903 20.0529 2.7973 19.85 3.87999C19.8295 3.97755 19.8287 4.0782 19.8476 4.17607C19.8665 4.27394 19.9047 4.36706 19.96 4.44999C20.6166 5.4398 20.9646 6.60222 20.96 7.78999C20.96 12.86 18.04 14.33 15.96 14.79C16.1432 15.3266 16.218 15.8942 16.18 16.46V19C16.1804 19.2551 16.0834 19.5008 15.9086 19.6867C15.7339 19.8726 15.4947 19.9847 15.24 20Z" fill="#9AA7C9"/>
</svg>
