<svg width="38" height="34" viewBox="0 0 38 34" fill="none" xmlns="http://www.w3.org/2000/svg">
<path d="M10.5208 25.7652L12.8125 22.9015L5.43513 17L12.8125 11.0985L10.5208 8.23484L1.35413 15.5682C1.13935 15.7399 0.965956 15.9578 0.846799 16.2057C0.727641 16.4535 0.665771 16.725 0.665771 17C0.665771 17.275 0.727641 17.5465 0.846799 17.7944C0.965956 18.0422 1.13935 18.2601 1.35413 18.4318L10.5208 25.7652ZM27.4791 8.23484L25.1875 11.0985L32.5648 17L25.1875 22.9015L27.4791 25.7652L36.6458 18.4318C36.8606 18.2601 37.034 18.0422 37.1531 17.7944C37.2723 17.5465 37.3342 17.275 37.3342 17C37.3342 16.725 37.2723 16.4535 37.1531 16.2057C37.034 15.9578 36.8606 15.7399 36.6458 15.5682L27.4791 8.23484ZM24.456 0.896008L17.1226 33.896L13.5421 33.1003L20.8755 0.100342L24.456 0.896008Z" fill="#61F8D5"/>
</svg>
