<svg width="21" height="20" viewBox="0 0 20 18" fill="none" xmlns="http://www.w3.org/2000/svg">
<path d="M6.51 17H6.43C4.81836 16.9859 3.23002 16.6136 1.78 15.91C1.51327 15.7847 1.29366 15.5773 1.1533 15.3182C1.01295 15.0591 0.959226 14.7618 1 14.47C1.04434 14.1762 1.18039 13.9038 1.38871 13.6919C1.59703 13.48 1.86697 13.3394 2.16 13.29C3.05861 13.1701 3.92309 12.8672 4.7 12.4C3.35116 11.3454 2.31275 9.94556 1.69482 8.3488C1.07689 6.75203 0.902451 5.01783 1.19 3.32999C1.22899 3.06264 1.34396 2.81213 1.52125 2.60825C1.69853 2.40437 1.93066 2.25572 2.19 2.17999C2.44231 2.10075 2.71235 2.09736 2.96657 2.17025C3.22079 2.24314 3.448 2.38909 3.62 2.58999C4.204 3.35577 4.93789 3.99455 5.77691 4.46735C6.61592 4.94016 7.54246 5.23707 8.5 5.33999C8.54574 4.16184 9.05204 3.04871 9.91 2.23999C10.3384 1.82976 10.8442 1.5089 11.3978 1.2961C11.9515 1.0833 12.5419 0.982808 13.1348 1.00049C13.7277 1.01818 14.3111 1.15368 14.8511 1.3991C15.3911 1.64452 15.8768 1.99496 16.28 2.42999C16.385 2.52286 16.5156 2.58204 16.6546 2.59987C16.7937 2.6177 16.9349 2.59336 17.06 2.52999C17.2984 2.41754 17.5639 2.37521 17.8255 2.40793C18.0871 2.44066 18.334 2.5471 18.5373 2.71484C18.7407 2.88257 18.8922 3.10468 18.9741 3.35525C19.056 3.60581 19.065 3.87451 19 4.12999C18.7694 5.0801 18.3323 5.96778 17.72 6.72999C17.585 9.57474 16.3309 12.2508 14.2309 14.1746C12.131 16.0984 9.35566 17.114 6.51 17ZM6.51 15H6.59C7.75267 15.04 8.91171 14.8488 9.99993 14.4375C11.0881 14.0262 12.0839 13.4029 12.9294 12.6039C13.775 11.8048 14.4535 10.8459 14.9257 9.78268C15.3978 8.71945 15.6542 7.57306 15.68 6.40999C15.6965 6.09124 15.828 5.78927 16.05 5.55999C16.2939 5.25124 16.5019 4.91575 16.67 4.55999C16.3097 4.56068 15.9534 4.48532 15.6243 4.33885C15.2951 4.19238 15.0006 3.97809 14.76 3.70999C14.5286 3.48054 14.2537 3.29957 13.9515 3.17765C13.6493 3.05574 13.3258 2.99534 13 2.99999C12.6709 2.99148 12.3434 3.04805 12.0362 3.16646C11.729 3.28487 11.4482 3.46279 11.21 3.68999C10.8886 3.99499 10.6529 4.37906 10.5265 4.80376C10.4002 5.22845 10.3876 5.67889 10.49 6.10999L10.75 7.24999L9.58 7.32999C8.38109 7.42775 7.17526 7.26375 6.04601 6.84935C4.91677 6.43495 3.89108 5.78004 3.04 4.92999C3.0035 6.24639 3.3328 7.54712 3.99129 8.68756C4.64979 9.82801 5.61167 10.7635 6.77 11.39L7.72 11.93L7.09 12.83C6.40869 13.7235 5.47518 14.3923 4.41 14.75C5.09331 14.9213 5.79557 15.0053 6.5 15H6.51Z" fill="#9AA7C9"/>
</svg>
